<svg xmlns="http://www.w3.org/2000/svg" xmlns:xlink="http://www.w3.org/1999/xlink" width="500" zoomAndPan="magnify" viewBox="0 0 375 374.999991" height="500" preserveAspectRatio="xMidYMid meet" version="1.0"><defs><g/><clipPath id="a6d3e2b168"><path d="M 319.488281 216.730469 L 362.589844 216.730469 L 362.589844 259.832031 L 319.488281 259.832031 Z M 319.488281 216.730469 " clip-rule="nonzero"/></clipPath><clipPath id="fc20ba6557"><path d="M 341.039062 216.730469 C 329.136719 216.730469 319.488281 226.378906 319.488281 238.28125 C 319.488281 250.183594 329.136719 259.832031 341.039062 259.832031 C 352.941406 259.832031 362.589844 250.183594 362.589844 238.28125 C 362.589844 226.378906 352.941406 216.730469 341.039062 216.730469 Z M 341.039062 216.730469 " clip-rule="nonzero"/></clipPath></defs><g clip-path="url(#a6d3e2b168)"><g clip-path="url(#fc20ba6557)"><path fill="#ff0000" d="M 319.488281 216.730469 L 362.589844 216.730469 L 362.589844 259.832031 L 319.488281 259.832031 Z M 319.488281 216.730469 " fill-opacity="1" fill-rule="nonzero"/></g></g><g fill="#ffffff" fill-opacity="1"><g transform="translate(18.104855, 264.220642)"><g><path d="M 20.25 -168.9375 L 148.21875 -168.9375 C 153.125 -168.9375 156.726562 -168.359375 159.03125 -167.203125 C 161.332031 -166.054688 162.867188 -164.253906 163.640625 -161.796875 C 164.410156 -159.347656 164.796875 -156.128906 164.796875 -152.140625 C 164.796875 -148.148438 164.410156 -144.960938 163.640625 -142.578125 C 162.867188 -140.203125 161.566406 -138.554688 159.734375 -137.640625 C 156.960938 -136.253906 153.046875 -135.5625 147.984375 -135.5625 L 104.03125 -135.5625 L 104.03125 -19.796875 C 104.03125 -16.265625 103.914062 -13.65625 103.6875 -11.96875 C 103.457031 -10.28125 102.765625 -8.320312 101.609375 -6.09375 C 100.460938 -3.875 98.429688 -2.300781 95.515625 -1.375 C 92.597656 -0.457031 88.757812 0 84 0 C 79.25 0 75.453125 -0.457031 72.609375 -1.375 C 69.773438 -2.300781 67.78125 -3.875 66.625 -6.09375 C 65.476562 -8.320312 64.789062 -10.316406 64.5625 -12.078125 C 64.332031 -13.847656 64.21875 -16.5 64.21875 -20.03125 L 64.21875 -135.5625 L 20.03125 -135.5625 C 15.113281 -135.5625 11.503906 -136.132812 9.203125 -137.28125 C 6.898438 -138.4375 5.363281 -140.238281 4.59375 -142.6875 C 3.832031 -145.144531 3.453125 -148.367188 3.453125 -152.359375 C 3.453125 -156.347656 3.832031 -159.53125 4.59375 -161.90625 C 5.363281 -164.289062 6.671875 -165.941406 8.515625 -166.859375 C 11.273438 -168.242188 15.1875 -168.9375 20.25 -168.9375 Z M 20.25 -168.9375 "/></g></g></g><g fill="#ffffff" fill-opacity="1"><g transform="translate(177.441377, 258.243462)"><g><path d="M 28.359375 -161.359375 L 69.03125 -161.140625 C 90.28125 -161.140625 108.96875 -153.484375 125.09375 -138.171875 C 141.21875 -122.859375 149.28125 -104.023438 149.28125 -81.671875 C 149.28125 -59.316406 141.398438 -40.148438 125.640625 -24.171875 C 109.878906 -8.203125 90.789062 -0.21875 68.375 -0.21875 L 28.140625 -0.21875 C 19.203125 -0.21875 13.632812 -2.050781 11.4375 -5.71875 C 9.675781 -8.789062 8.796875 -13.476562 8.796875 -19.78125 L 8.796875 -142.015625 C 8.796875 -145.535156 8.90625 -148.097656 9.125 -149.703125 C 9.34375 -151.316406 10.039062 -153.222656 11.21875 -155.421875 C 13.269531 -159.378906 18.984375 -161.359375 28.359375 -161.359375 Z M 69.03125 -39.125 C 79.582031 -39.125 89.109375 -43.046875 97.609375 -50.890625 C 106.109375 -58.734375 110.359375 -68.585938 110.359375 -80.453125 C 110.359375 -92.328125 106.21875 -102.257812 97.9375 -110.25 C 89.65625 -118.238281 79.945312 -122.234375 68.8125 -122.234375 L 47.703125 -122.234375 L 47.703125 -39.125 Z M 69.03125 -39.125 "/></g></g></g></svg>